<svg xmlns="http://www.w3.org/2000/svg" width="18" height="18" viewBox="0 0 18 18" fill="none">
<g clip-path="url(#clip0_404_56)">
<path d="M5.50437 7.56388L9.00005 4.06834L12.4976 7.56573L14.5316 5.5317L9.00005 0L3.47034 5.52985L5.50437 7.56388Z" fill="#27272A"/>
<path d="M4.0683 8.99967L2.0343 6.96567L0.000207724 8.99977L2.0342 11.0338L4.0683 8.99967Z" fill="#F3BA2F"/>
<path d="M5.50442 10.436L9.0001 13.9316L12.4975 10.4343L14.5327 12.4672L14.5317 12.4684L9.0001 17.9999L3.47025 12.4702L3.46741 12.4674L5.50442 10.436Z" fill="#F3BA2F"/>
<path d="M15.9664 11.0347L18.0005 9.00059L15.9665 6.9666L13.9324 9.00069L15.9664 11.0347Z" fill="#F3BA2F"/>
<path d="M11.0634 8.99894H11.0642L9.0002 6.93491L7.47486 8.46025H7.47472L7.29956 8.63555L6.93802 8.99709L6.93518 8.99993L6.93802 9.00292L9.0002 11.0651L11.0642 9.00107L11.0652 8.99993L11.0634 8.99894Z" fill="#F3BA2F"/>
</g>
<defs>
<clipPath id="clip0_404_56">
<rect width="18" height="18" fill="white"/>
</clipPath>
</defs>
</svg>