<svg width="359" height="38" viewBox="0 0 359 38" fill="none" xmlns="http://www.w3.org/2000/svg">
<path d="M10.9776 3.58138C10.9776 4.53122 10.5995 5.44216 9.9263 6.11379C9.25313 6.78543 8.34012 7.16276 7.38812 7.16276C6.43611 7.16276 5.5231 6.78543 4.84993 6.11379C4.17677 5.44216 3.79858 4.53122 3.79858 3.58138C3.79858 2.63154 4.17677 1.7206 4.84993 1.04896C5.5231 0.377323 6.43611 0 7.38812 0C8.34012 0 9.25313 0.377323 9.9263 1.04896C10.5995 1.7206 10.9776 2.63154 10.9776 3.58138Z" fill="black"/>
<path d="M15.9438 9.96745L7.59711 6.0193L8.82245 3.43755L16.5781 7.09803L37.8847 6.92543L37.9063 9.78766L15.9438 9.96745Z" fill="black"/>
<path d="M15.8574 10.3774L7.04932 6.21348L8.64947 2.87661L16.6646 6.69531L38.2883 6.51552V10.1904L15.8574 10.3774ZM8.13771 5.83232L16.0664 9.55753L37.4811 9.38494V7.33535L16.4845 7.50795L9.01707 3.97691L8.13771 5.83232Z" fill="black"/>
<path d="M7.17906 12.9519C7.17906 13.4222 7.08622 13.888 6.90583 14.3225C6.72544 14.757 6.46103 15.1518 6.12771 15.4843C5.79439 15.8169 5.39869 16.0807 4.96319 16.2607C4.52768 16.4407 4.06092 16.5333 3.58953 16.5333C3.11815 16.5333 2.65138 16.4407 2.21588 16.2607C1.78038 16.0807 1.38467 15.8169 1.05135 15.4843C0.718031 15.1518 0.453628 14.757 0.273237 14.3225C0.092846 13.888 -7.02417e-09 13.4222 0 12.9519C1.41859e-08 12.0021 0.378182 11.0912 1.05135 10.4195C1.72452 9.74787 2.63753 9.37055 3.58953 9.37055C4.54153 9.37055 5.45455 9.74787 6.12771 10.4195C6.80088 11.0912 7.17906 12.0021 7.17906 12.9519Z" fill="black"/>
<path d="M13.6806 17.3172L5.74469 15.0375L6.53756 12.2903L14.0842 14.455L37.8919 14.4046L37.8991 17.2668L13.6806 17.3172Z" fill="black"/>
<path d="M13.6229 17.7271L5.24011 15.3179L6.25643 11.7869L14.1419 14.0522L38.2955 13.9947V17.6696L13.6229 17.7271ZM6.24922 14.7642L13.7382 16.9217L37.5243 16.8713V14.8145L14.0626 14.8649L6.85468 12.7937L6.24922 14.7642Z" fill="black"/>
<path d="M7.17906 25.6809C7.17906 26.1512 7.08622 26.6169 6.90583 27.0515C6.72544 27.486 6.46103 27.8808 6.12771 28.2133C5.79439 28.5459 5.39869 28.8097 4.96319 28.9897C4.52768 29.1697 4.06092 29.2623 3.58953 29.2623C3.11815 29.2623 2.65138 29.1697 2.21588 28.9897C1.78038 28.8097 1.38467 28.5459 1.05135 28.2133C0.718031 27.8808 0.453628 27.486 0.273237 27.0515C0.092846 26.6169 -7.02417e-09 26.1512 0 25.6809C1.41859e-08 24.7311 0.378182 23.8201 1.05135 23.1485C1.72452 22.4769 2.63753 22.0995 3.58953 22.0995C4.54153 22.0995 5.45455 22.4769 6.12771 23.1485C6.80088 23.8201 7.17906 24.7311 7.17906 25.6809Z" fill="black"/>
<path d="M6.53756 26.3425L5.74469 23.5882L13.6806 21.3157L37.8991 21.366L37.8919 24.2282L14.0842 24.1779L6.53756 26.3425Z" fill="black"/>
<path d="M6.25643 26.846L5.24011 23.3149L13.695 20.9058L38.3171 20.9633V24.6382L14.1635 24.5806L6.25643 26.846ZM6.25643 23.8687L6.82585 25.8391L14.0914 23.768L37.481 23.8183V21.7687L13.7382 21.7184L6.25643 23.8687Z" fill="black"/>
<path d="M10.9776 34.4186C10.9776 35.3685 10.5995 36.2794 9.9263 36.951C9.25313 37.6227 8.34012 38 7.38812 38C6.43611 38 5.5231 37.6227 4.84993 36.951C4.17677 36.2794 3.79858 35.3685 3.79858 34.4186C3.79858 33.4688 4.17677 32.5578 4.84993 31.8862C5.5231 31.2146 6.43611 30.8372 7.38812 30.8372C8.34012 30.8372 9.25313 31.2146 9.9263 31.8862C10.5995 32.5578 10.9776 33.4688 10.9776 34.4186Z" fill="black"/>
<path d="M8.82245 34.5625L7.59711 31.9735L15.9438 28.0326L37.9063 28.2123L37.8847 31.0746L16.5781 30.902L8.82245 34.5625Z" fill="black"/>
<path d="M8.64947 35.1018L7.04932 31.7793L15.8574 27.6226L38.3244 27.8096V31.4845L16.7007 31.3047L8.64947 35.1018ZM8.15933 32.1677L9.0387 34.0231L16.4845 30.4921L37.481 30.6646V28.6151L16.0159 28.4353L8.15933 32.1677Z" fill="black"/>
<path d="M285.159 31.916V6.47237H288.042V28.9818H301.139V31.8584L285.159 31.916Z" fill="black"/>
<path d="M310.487 24.293L306.847 31.916H303.712L315.908 6.47237H319.512L331.7 31.8872H328.536L324.896 24.2642L310.487 24.293ZM323.634 21.6752L317.666 9.19076L311.698 21.6752H323.634Z" fill="black"/>
<path d="M358.996 24.4512C359.045 26.0186 358.557 27.5558 357.612 28.8092C356.722 29.9393 355.519 30.7844 354.153 31.24C352.635 31.7118 351.05 31.9328 349.46 31.8944H337.56V6.47237H348.48C351.197 6.47237 353.194 6.86071 354.484 7.63739C355.458 8.1959 356.257 9.01363 356.791 9.99917C357.326 10.9847 357.575 12.0992 357.512 13.218C357.498 14.1773 357.235 15.1166 356.748 15.9436C356.206 16.8798 355.395 17.6316 354.419 18.1011C355.815 18.5907 357.022 19.5035 357.872 20.7116C358.589 21.8268 358.965 23.1263 358.953 24.4512H358.996ZM353.353 10.2551C352.502 9.65102 350.866 9.34897 348.444 9.34897H340.364V17.0439H348.444C350.847 17.0439 352.483 16.7299 353.353 16.1018C353.788 15.7636 354.134 15.3253 354.363 14.8244C354.591 14.3234 354.695 13.7747 354.664 13.2252C354.707 12.6639 354.609 12.1008 354.38 11.5863C354.151 11.0718 353.798 10.6219 353.353 10.2767V10.2551ZM353.864 20.6037C352.449 20.0153 350.919 19.7547 349.388 19.8414H340.4V29.0825H349.388C350.919 29.1692 352.449 28.9086 353.864 28.3202C354.578 27.9698 355.17 27.4137 355.563 26.7239C355.956 26.034 356.133 25.2423 356.07 24.4512C356.123 23.6673 355.942 22.8853 355.549 22.2042C355.157 21.5231 354.57 20.9736 353.864 20.6253V20.6037Z" fill="black"/>
<path d="M71.4302 10.1329L62.6294 31.916H58.6218L49.8137 10.1329V31.916H45.6692V6.47237H52.5095L60.6256 26.472L68.7417 6.47237H75.582V31.916H71.4302V10.1329Z" fill="#EC6468"/>
<path d="M107.463 6.47237L96.4705 20.4815V31.916H91.67V20.4815L80.678 6.47237H86.574L94.0702 16.0946L101.566 6.47237H107.463Z" fill="#EC6468"/>
<path d="M124.199 32.4625C122.376 32.5157 120.56 32.2003 118.862 31.5354C117.164 30.8705 115.618 29.8698 114.317 28.5935C113.049 27.3909 112.044 25.9395 111.366 24.3305C110.687 22.7216 110.35 20.9899 110.375 19.2445C110.35 17.4991 110.687 15.7675 111.366 14.1585C112.044 12.5495 113.049 11.0981 114.317 9.89554C115.619 8.62055 117.165 7.62073 118.863 6.95593C120.561 6.29112 122.376 5.975 124.199 6.0265C126.712 5.97984 129.191 6.61358 131.371 7.86033C133.43 9.0489 135.163 10.7262 136.417 12.7434L132.409 15.0303C130.593 12.1249 127.863 10.6722 124.221 10.6722C123.013 10.626 121.807 10.8189 120.674 11.2398C119.541 11.6607 118.502 12.3013 117.618 13.1245C116.781 13.9127 116.119 14.8684 115.677 15.9292C115.235 16.99 115.022 18.132 115.052 19.2805C115.021 20.4291 115.233 21.5713 115.675 22.6323C116.118 23.6932 116.78 24.6488 117.618 25.4364C118.502 26.2597 119.541 26.9002 120.674 27.3211C121.807 27.742 123.013 27.9349 124.221 27.8887C127.863 27.8887 130.593 26.436 132.409 23.5307L136.417 25.8176C135.164 27.8357 133.431 29.5132 131.371 30.7006C129.183 31.9223 126.705 32.5311 124.199 32.4625Z" fill="#EC6468"/>
<path d="M143.127 31.916V6.47237H162.776V10.8592H147.639V16.6699H160.614V21.028H147.639V27.5579H163.136V31.916H143.127Z" fill="#EC6468"/>
<path d="M176.384 6.47237V27.4141H188.249V31.916H171.872V6.47237H176.384Z" fill="#EC6468"/>
<path d="M199.969 6.47237V31.916H195.168V6.47237H199.969Z" fill="#EC6468"/>
<path d="M213.865 29.9167C211.391 27.999 210.156 25.2758 210.161 21.7472V6.47237H214.961V21.7184C214.917 22.5532 215.065 23.3869 215.394 24.1559C215.723 24.9249 216.223 25.6089 216.857 26.1556C218.355 27.2171 220.147 27.7873 221.985 27.7873C223.823 27.7873 225.615 27.2171 227.114 26.1556C227.746 25.6075 228.245 24.9233 228.573 24.1547C228.902 23.386 229.051 22.5529 229.009 21.7184V6.47237H233.81V21.7184C233.81 25.2374 232.572 27.9606 230.098 29.888C227.717 31.545 224.884 32.4334 221.982 32.4334C219.079 32.4334 216.246 31.545 213.865 29.888V29.9167Z" fill="#EC6468"/>
<path d="M269.77 10.1329L260.962 31.916H256.954L248.146 10.1329V31.916H244.002V6.47237H250.835L258.951 26.4432L267.074 6.47237H273.9V31.916H269.755L269.77 10.1329Z" fill="#EC6468"/>
</svg>
