<svg width="18" height="18" viewBox="0 0 18 18" fill="none" xmlns="http://www.w3.org/2000/svg">
<g id="Left" clip-path="url(#clip0_230_66)">
<g id="MATIC">
<path id="Vector" d="M0 3.76875L9 9V12.4875L3 9V15.975L0 14.2312V3.76875Z" fill="#27272A"/>
<path id="Vector_2" d="M2.99976 15.975V9L5.99976 10.7437V14.2312L2.99976 15.975Z" fill="#2BBDF7"/>
<path id="Vector_3" d="M0 3.76876L3 2.02501L12 7.25626L9 9L0 3.76876Z" fill="#2B6DEF"/>
<path id="Vector_4" d="M9 8.99999L12 7.25625V10.7437L9 12.4875V8.99999Z" fill="#2BBDF7"/>
<path id="Vector_5" d="M11.9998 3.76875V14.2312L14.9998 15.975V5.51251L11.9998 3.76875Z" fill="#2891F9"/>
<path id="Vector_6" d="M18.0002 3.76875L15.0002 5.51251V15.975L18.0002 14.2312V3.76875Z" fill="#2BBDF7"/>
<path id="Vector_7" d="M14.9998 2.025L17.9998 3.76875L14.9998 5.5125L11.9998 3.76875L14.9998 2.025Z" fill="#2B6DEF"/>
</g>
</g>
<defs>
<clipPath id="clip0_230_66">
<rect width="18" height="18" fill="white"/>
</clipPath>
</defs>
</svg>
